<?xml version="1.0" encoding="utf-8"?>
<svg xmlns="http://www.w3.org/2000/svg" viewBox="0 0 500 500" style="shape-rendering: crispedges;">
  <g transform="matrix(1, 0, 0, 1.248093, 0.132184, 0.34639)" style="">
    <path d="M 255 217 L 325 211 L 294 188 Z" style="fill: rgb(246,237,186);"/>
    <path d="M 255 217 L 316 317 L 325 211 Z" style="fill: rgb(235,243,190);"/>
    <path d="M 255 217 L 236 315 L 316 317 Z" style="fill: rgb(232,244,191);"/>
    <path d="M 316 317 L 390 262 L 325 211 Z" style="fill: rgb(222,248,194);"/>
    <path d="M 417 145 L 348 115 L 325 211 Z" style="fill: rgb(222,248,172);"/>
    <path d="M 325 211 L 348 115 L 294 188 Z" style="fill: rgb(234,243,176);"/>
    <path d="M 155 76 L 162 213 L 255 217 Z" style="fill: rgb(234,242,149);"/>
    <path d="M 132 194 L 155 76 L 109 151 Z" style="fill: rgb(212,250,115);"/>
    <path d="M 255 217 L 162 213 L 236 315 Z" style="fill: rgb(237,242,176);"/>
    <path d="M 390 262 L 417 145 L 325 211 Z" style="fill: rgb(229,244,190);"/>
    <path d="M 155 76 L 255 217 L 294 188 Z" style="fill: rgb(242,239,161);"/>
    <path d="M 162 213 L 147 366 L 236 315 Z" style="fill: rgb(217,250,168);"/>
    <path d="M 320 38 L 284 59 L 348 115 Z" style="fill: rgb(202,251,138);"/>
    <path d="M 348 115 L 284 59 L 294 188 Z" style="fill: rgb(223,247,153);"/>
    <path d="M 417 145 L 415 83 L 348 115 Z" style="fill: rgb(197,249,143);"/>
    <path d="M 415 83 L 320 38 L 348 115 Z" style="fill: rgb(196,254,142);"/>
    <path d="M 132 194 L 98 246 L 162 213 Z" style="fill: rgb(226,246,143);"/>
    <path d="M 155 76 L 132 194 L 162 213 Z" style="fill: rgb(223,247,131);"/>
    <path d="M 132 194 L 109 151 L 98 246 Z" style="fill: rgb(223,245,136);"/>
    <path d="M 155 76 L 294 188 L 284 59 Z" style="fill: rgb(229,244,141);"/>
    <path d="M 214.1076923076923 0 L 203.1951219512195 0 L 155 76 L 284 59 Z" style="fill: rgb(194,248,114);"/>
    <path d="M 98 246 L 147 366 L 162 213 Z" style="fill: rgb(213,252,150);"/>
    <path d="M 236 315 L 208.55208333333334 400 L 217.98936170212767 400 L 316 317 Z" style="fill: rgb(199,231,154);"/>
    <path d="M 316 317 L 471 322 L 390 262 Z" style="fill: rgb(195,251,188);"/>
    <path d="M 390 262 L 500 231.86301369863014 L 500 198.7058823529412 L 417 145 Z" style="fill: rgb(189,229,146);"/>
    <path d="M 417 145 L 500 111.65811965811966 L 500 93.71428571428571 L 415 83 Z" style="fill: rgb(158,235,99);"/>
    <path d="M 387.3098591549296 400 L 452.2116788321168 400 L 471 322 L 316 317 Z" style="fill: rgb(138,227,126);"/>
    <path d="M 147 366 L 190.82222222222222 400 L 208.55208333333334 400 L 236 315 Z" style="fill: rgb(175,230,122);"/>
    <path d="M 98 246 L 91 324 L 147 366 Z" style="fill: rgb(190,251,136);"/>
    <path d="M 190.82222222222222 400 L 147 366 L 142.36363636363637 400 Z" style="fill: rgb(138,222,79);"/>
    <path d="M 217.98936170212767 400 L 323.9925925925926 400 L 316 317 Z" style="fill: rgb(160,220,120);"/>
    <path d="M 471 322 L 500 277.38461538461536 L 500 231.86301369863014 L 390 262 Z" style="fill: rgb(163,230,140);"/>
    <path d="M 320 38 L 222.4090909090909 0 L 214.1076923076923 0 L 284 59 Z" style="fill: rgb(193,248,125);"/>
    <path d="M 500 198.70588235294116 L 500 143.672 L 417 145 Z" style="fill: rgb(154,219,100);"/>
    <path d="M 388.28985507246375 0 L 332.8 0 L 320 38 Z" style="fill: rgb(153,255,125);"/>
    <path d="M 500 143.672 L 500 111.65811965811966 L 417 145 Z" style="fill: rgb(139,222,80);"/>
    <path d="M 222.4090909090909 0 L 320 38 L 304.8 0 Z" style="fill: rgb(179,248,118);"/>
    <path d="M 323.9925925925926 400 L 387.3098591549296 400 L 316 317 Z" style="fill: rgb(136,224,120);"/>
    <path d="M 203.1951219512195 0 L 136 0 L 155 76 Z" style="fill: rgb(170,252,88);"/>
    <path d="M 56 29 L 16 147 L 109 151 Z" style="fill: rgb(175,254,82);"/>
    <path d="M 500 277.38461538461536 L 471 322 L 500 348.62295081967216 Z" style="fill: rgb(126,222,115);"/>
    <path d="M 117.36697247706422 400 L 142.36363636363637 400 L 147 366 Z" style="fill: rgb(119,224,58);"/>
    <path d="M 56 29 L 109 151 L 155 76 Z" style="fill: rgb(183,255,83);"/>
    <path d="M 109 151 L 16 147 L 98 246 Z" style="fill: rgb(205,247,122);"/>
    <path d="M 98 246 L 0 332.72566371681415 L 0 342.8867924528302 L 91 324 Z" style="fill: rgb(173,254,131);"/>
    <path d="M 91 324 L 71.37086092715232 400 L 117.36697247706422 400 L 147 366 Z" style="fill: rgb(122,228,67);"/>
    <path d="M 452.2116788321168 400 L 500 400 L 500 348.62295081967216 L 471 322 Z" style="fill: rgb(66,202,62);"/>
    <path d="M 436.1140350877193 0 L 388.28985507246375 0 L 320 38 L 415 83 Z" style="fill: rgb(157,251,120);"/>
    <path d="M 500 93.71428571428571 L 500 49.266666666666666 L 465.62790697674416 0 L 436.1140350877193 0 L 415 83 Z" style="fill: rgb(121,233,75);"/>
    <path d="M 332.8 0 L 304.8 0 L 320 38 Z" style="fill: rgb(168,252,121);"/>
    <path d="M 79.45588235294117 0 L 56 29 L 125.42424242424242 0 Z" style="fill: rgb(132,255,53);"/>
    <path d="M 136 0 L 125.42424242424242 0 L 56 29 L 155 76 Z" style="fill: rgb(159,255,69);"/>
    <path d="M 0 148.38728323699422 L 0 172.53191489361703 L 16 147 Z" style="fill: rgb(175,249,106);"/>
    <path d="M 16 147 L 0 172.53191489361703 L 0 227.7674418604651 L 98 246 Z" style="fill: rgb(192,247,122);"/>
    <path d="M 0 227.7674418604651 L 0 332.72566371681415 L 98 246 Z" style="fill: rgb(169,253,126);"/>
    <path d="M 465.62790697674416 0 L 500 49.266666666666666 L 500 0 Z" style="fill: rgb(48,224,24);"/>
    <path d="M 18.58490566037736 400 L 71.37086092715232 400 L 91 324 Z" style="fill: rgb(81,224,39);"/>
    <path d="M 0 342.8867924528302 L 0 400 L 18.584905660377363 400 L 91 324 Z" style="fill: rgb(103,234,71);"/>
    <path d="M 56 29 L 0 22.411764705882355 L 0 75 L 16 147 Z" style="fill: rgb(133,255,54);"/>
    <path d="M 79.45588235294117 0 L 31.049999999999997 0 L 0 15.146341463414636 L 0 22.41176470588235 L 56 29 Z" style="fill: rgb(107,255,38);"/>
    <path d="M 0 75 L 0 130.82978723404256 L 16 147 Z" style="fill: rgb(128,255,51);"/>
    <path d="M 0 0 L 0 15.146341463414634 L 31.05 0 Z" style="fill: rgb(79,255,17);"/>
    <path d="M 0 130.82978723404256 L 0 148.38728323699422 L 16 147 Z" style="fill: rgb(153,254,74);"/>
  </g>
</svg>